<svg height="512pt" viewBox="0 0 512 512" width="512pt" xmlns="http://www.w3.org/2000/svg"><path d="m256 0 25.484375 29.820312 31.480469-23.402343 18.210937 34.742187 35.898438-15.808594 10.023437 37.921876 38.515625-7.421876 1.332031 39.203126 39.203126 1.332031-7.421876 38.515625 37.921876 10.023437-15.808594 35.898438 34.742187 18.210937-23.402343 31.480469 29.820312 25.484375-29.820312 25.484375 23.402343 31.480469-34.742187 18.210937 15.808594 35.898438-37.921876 10.023437 7.421876 38.515625-39.203126 1.332031-1.332031 39.203126-38.515625-7.421876-10.023437 37.921876-35.898438-15.808594-18.210937 34.742187-31.480469-23.402343-25.484375 29.820312-25.484375-29.820312-31.480469 23.402343-18.210937-34.742187-35.898438 15.808594-10.023437-37.921876-38.515625 7.421876-1.332031-39.203126-39.203126-1.332031 7.421876-38.515625-37.921876-10.023437 15.808594-35.898438-34.742187-18.210937 23.402343-31.480469-29.820312-25.484375 29.820312-25.484375-23.402343-31.480469 34.742187-18.210937-15.808594-35.898438 37.921876-10.023437-7.421876-38.515625 39.203126-1.332031 1.332031-39.203126 38.515625 7.421876 10.023437-37.921876 35.898438 15.808594 18.210937-34.742187 31.480469 23.402343zm0 0" fill="#ff6523"/><path d="m256 59.75v392.5c108.386719 0 196.25-87.863281 196.25-196.25s-87.863281-196.25-196.25-196.25zm0 0" fill="#ff1b10"/><path d="m421.34375 256c0-108.386719-74.027344-196.25-165.34375-196.25-108.386719 0-196.25 87.863281-196.25 196.25s87.863281 196.25 196.25 196.25c91.316406 0 165.34375-87.863281 165.34375-196.25zm0 0" fill="#ff451b"/><g fill="#fff"><path d="m190.582031 144.226562c-25.558593 0-46.355469 20.796876-46.355469 46.355469 0 25.5625 20.796876 46.359375 46.355469 46.359375 25.5625 0 46.359375-20.796875 46.359375-46.359375 0-25.558593-20.796875-46.355469-46.359375-46.355469zm0 61.808594c-8.53125 0-15.453125-6.917968-15.453125-15.453125 0-8.53125 6.921875-15.453125 15.453125-15.453125 8.535157 0 15.453125 6.921875 15.453125 15.453125 0 8.535157-6.917968 15.453125-15.453125 15.453125zm0 0"/><path d="m363.246094 148.753906c-6.03125-6.035156-15.816406-6.035156-21.851563 0l-192.644531 192.640625c-6.035156 6.035157-6.035156 15.820313 0 21.855469s15.820312 6.035156 21.855469 0l192.640625-192.644531c6.039062-6.035157 6.035156-15.820313 0-21.851563zm0 0"/><path d="m321.417969 275.058594c-25.5625 0-46.359375 20.796875-46.359375 46.359375 0 25.558593 20.796875 46.355469 46.359375 46.355469 25.558593 0 46.355469-20.796876 46.355469-46.355469 0-25.5625-20.796876-46.359375-46.355469-46.359375zm0 61.8125c-8.535157 0-15.453125-6.921875-15.453125-15.453125 0-8.535157 6.917968-15.453125 15.453125-15.453125 8.53125 0 15.453125 6.917968 15.453125 15.453125 0 8.53125-6.921875 15.453125-15.453125 15.453125zm0 0"/></g></svg>