<?xml version="1.0" encoding="iso-8859-1"?>
<!-- Generator: Adobe Illustrator 19.0.0, SVG Export Plug-In . SVG Version: 6.00 Build 0)  -->
<svg version="1.1" id="Capa_1" xmlns="http://www.w3.org/2000/svg" xmlns:xlink="http://www.w3.org/1999/xlink" x="0px" y="0px"
	 viewBox="0 0 511.997 511.997" style="enable-background:new 0 0 511.997 511.997;" xml:space="preserve">
<g>
	<circle style="fill:#7D6599;" cx="282.48" cy="229.518" r="229.517"/>
	<path style="fill:#F0C419;" d="M89.42,235.988l20.303,30.42c4.043,6.061,2.722,14.214-3.028,18.688l-24.973,19.421
		c-5.416,4.171-6.973,11.673-3.663,17.655c7.336,13.162,14.257,28.725,48.666,63.126s49.964,41.331,63.126,48.666
		c5.982,3.309,13.484,1.753,17.655-3.663l19.421-24.973c4.474-5.749,12.627-7.071,18.688-3.028l31.382,20.921l35.31,23.543
		c6.175,4.113,8.029,12.353,4.211,18.714l-16.772,27.886c-4.443,7.537-11.615,13.078-20.03,15.475
		c-27.807,7.627-89.159,9.172-187.445-89.159S-4.47,260.07,3.157,232.263c2.397-8.415,7.937-15.586,15.475-20.03l27.886-16.772
		c6.362-3.818,14.601-1.964,18.714,4.211L89.42,235.988z"/>
	<g>
		<path style="fill:#B49ACA;" d="M282.48,35.311c-78.03,0.132-148.444,46.836-178.918,118.669c-0.913,2.157-0.931,4.589-0.05,6.76
			c0.881,2.171,2.588,3.902,4.746,4.813c1.085,0.465,2.253,0.705,3.434,0.706c3.546,0.001,6.747-2.12,8.13-5.385
			C147.42,95.478,211.498,52.967,282.48,52.966c4.875,0,8.828-3.952,8.828-8.828S287.355,35.311,282.48,35.311z"/>
		<path style="fill:#B49ACA;" d="M467.859,220.69c-4.875,0-8.828,3.952-8.828,8.828c-0.124,70.944-42.593,134.962-107.908,162.657
			c-2.905,1.23-4.932,3.916-5.32,7.047c-0.387,3.13,0.925,6.23,3.443,8.13c2.518,1.901,5.858,2.314,8.762,1.084
			c71.926-30.363,118.678-100.845,118.678-178.918C476.687,224.642,472.734,220.69,467.859,220.69z"/>
		<circle style="fill:#B49ACA;" cx="321.056" cy="48.923" r="8.828"/>
		<circle style="fill:#B49ACA;" cx="317.79" cy="414.897" r="8.828"/>
	</g>
	<g>
		<path style="fill:#F0C419;" d="M255.997,150.069h-52.966c-9.751,0-17.655,7.904-17.655,17.655v17.655
			c0,4.875,3.952,8.828,8.828,8.828s8.828-3.952,8.828-8.828v-17.655h52.966v19.703c-0.001,2.181-0.809,4.285-2.269,5.906
			l-61.652,68.511c-4.664,5.182-5.842,12.623-3.007,18.992c2.835,6.369,9.153,10.473,16.124,10.475h59.63
			c4.875,0,8.828-3.952,8.828-8.828s-3.952-8.828-8.828-8.828h-59.63l61.652-68.502c4.39-4.859,6.816-11.177,6.806-17.726v-19.703
			c0-4.682-1.86-9.173-5.171-12.484C265.17,151.929,260.679,150.069,255.997,150.069z"/>
		<path style="fill:#F0C419;" d="M379.583,238.345h-8.828V220.69c0-4.875-3.952-8.828-8.828-8.828s-8.828,3.952-8.828,8.828v17.655
			h-38.682l37.8-75.502c2.179-4.363,0.409-9.667-3.955-11.847s-9.667-0.409-11.847,3.955l-37.747,75.502
			c-2.731,5.466-2.442,11.955,0.764,17.157c3.206,5.201,8.874,8.375,14.984,8.391H353.1v26.483c0,4.875,3.952,8.828,8.828,8.828
			s8.828-3.952,8.828-8.828V256h8.828c4.875,0,8.828-3.952,8.828-8.828C388.411,242.297,384.458,238.345,379.583,238.345z"/>
	</g>
</g>
<g>
</g>
<g>
</g>
<g>
</g>
<g>
</g>
<g>
</g>
<g>
</g>
<g>
</g>
<g>
</g>
<g>
</g>
<g>
</g>
<g>
</g>
<g>
</g>
<g>
</g>
<g>
</g>
<g>
</g>
</svg>
